<svg id="Layer_3" enable-background="new 0 0 64 64" height="512" viewBox="0 0 64 64" width="512" xmlns="http://www.w3.org/2000/svg"><g><circle cx="50" cy="14" fill="#669e54" r="12"/><path d="m38 14c0 3.009 1.116 5.752 2.945 7.859.674.083 1.356.141 2.055.141 8.284 0 15-6.044 15-13.5 0-1.387-.234-2.724-.665-3.983-2.03-1.572-4.569-2.517-7.335-2.517-6.627 0-12 5.373-12 12z" fill="#85b176"/><path d="m36 46h14v-9h-39c-4.971 0-9 4.029-9 9v16h34z" fill="#c7e2fb"/><path d="m11 37c-4.971 0-9 4.029-9 9v11.733c1.474.17 2.974.267 4.5.267 15.3 0 28.267-8.809 32.784-21z" fill="#ebf7fe"/><path d="m22 43-5-6h-4l3 9z" fill="#4472b0"/><path d="m22 43 5-6h4l-3 9z" fill="#4472b0"/><g><path d="m22 43-2.8 1.4 1.8 3.6h2l1.8-3.6z" fill="#2d4d81"/></g><path d="m25 62-2-14h-2l-2 14z" fill="#4472b0"/><path d="m31 20v6c0 4.971-4.029 9-9 9-4.971 0-9-4.029-9-9v-6h6c1.889 0 3.667-.889 4.8-2.4l1.2-1.6 1.2 1.6c1.133 1.511 2.911 2.4 4.8 2.4z" fill="#efbe9c"/><path d="m13 26v-5h-1c-1.657 0-3 1.343-3 3s1.343 3 3 3h1.059c-.037-.329-.059-.662-.059-1z" fill="#efbe9c"/><path d="m22 6c-6.627 0-12 5.373-12 12v3.779c.532-.479 1.228-.779 2-.779h1v-1h6c1.889 0 3.667-.889 4.8-2.4l1.2-1.6 1.2 1.6c1.133 1.511 2.911 2.4 4.8 2.4v1h1c.772 0 1.468.3 2 .779v-3.779c0-6.627-5.373-12-12-12z" fill="#976949"/><g fill="#efbe9c"><path d="m32 21h-1v5c0 .338-.022.671-.059 1h1.059c1.657 0 3-1.343 3-3s-1.343-3-3-3z"/><path d="m22 35c-1.851 0-3.57-.56-5-1.518v3.518l5 6 5-6v-3.518c-1.43.958-3.149 1.518-5 1.518z"/><path d="m50 46v-10c0-1.105.895-2 2-2 1.105 0 2 .895 2 2v3h1.5c1.933 0 3.5 1.567 3.5 3.5 0 1.933-1.567 3.5-3.5 3.5z"/></g><g><path d="m55.5 38h-.5v-2c0-1.654-1.346-3-3-3s-3 1.346-3 3h-21v-2h-.026c1.928-1.443 3.326-3.557 3.824-6h.202c2.206 0 4-1.794 4-4 0-1.006-.385-1.915-1-2.618v-3.382c0-7.168-5.832-13-13-13s-13 5.832-13 13v3.382c-.615.703-1 1.612-1 2.618 0 2.206 1.794 4 4 4h.202c.498 2.443 1.896 4.557 3.824 6h-.026v2h-5c-5.514 0-10 4.486-10 10v16c0 .553.447 1 1 1h34c.553 0 1-.447 1-1v-15h13 5.5c2.481 0 4.5-2.019 4.5-4.5s-2.019-4.5-4.5-4.5zm-38.969 0 3.892 4.67-3.839 1.919-2.197-6.589zm5.337 11h.265l1.714 12h-3.693zm.514-2h-.764l-1.076-2.153 1.458-.729 1.458.729zm1.195-4.33 3.892-4.67h2.144l-2.197 6.59zm8.423-16.67v-4c1.103 0 2 .897 2 2s-.897 2-2 2zm-22-2c0-1.103.897-2 2-2v4c-1.103 0-2-.897-2-2zm2-4c-.347 0-.678.058-1 .142v-2.142c0-6.065 4.935-11 11-11s11 4.935 11 11v2.142c-.322-.084-.653-.142-1-.142 0-.553-.447-1-1-1-1.565 0-3.061-.748-4-2.001l-1.2-1.6c-.377-.502-1.223-.502-1.6 0l-1.2 1.601c-.939 1.252-2.435 2-4 2h-6c-.553 0-1 .447-1 1zm2 6v-5h5c2.191 0 4.285-1.047 5.6-2.8l.4-.534.4.533c1.113 1.484 2.783 2.463 4.6 2.728v5.073c0 4.411-3.589 8-8 8s-8-3.589-8-8zm8 10c1.422 0 2.774-.303 4-.841v1.479l-4 4.8-4-4.8v-1.479c1.226.538 2.578.841 4 .841zm-19 10c0-4.411 3.589-8 8-8h1.28l2.772 8.316c.091.274.298.496.565.607.123.052.253.077.383.077.153 0 .307-.035.447-.105l2.305-1.153 1.213 2.426-1.833 12.832h-9.132v-14h-2v14h-4zm46-1h-12v-3h-2v19h-9.132l-1.833-12.832 1.213-2.426 2.305 1.153c.14.07.294.105.447.105.13 0 .26-.025.383-.076.268-.111.475-.333.565-.607l2.772-8.317h17.28v1zm6.5 0h-4.5v-6-2-1c0-.552.448-1 1-1s1 .448 1 1v3c0 .553.447 1 1 1h1.5c1.379 0 2.5 1.121 2.5 2.5s-1.121 2.5-2.5 2.5z"/><path d="m50 27c7.168 0 13-5.832 13-13s-5.832-13-13-13-13 5.832-13 13 5.832 13 13 13zm0-24c6.065 0 11 4.935 11 11s-4.935 11-11 11-11-4.935-11-11 4.935-11 11-11z"/><path d="m48 19c.256 0 .512-.098.707-.293l8-8-1.414-1.414-7.293 7.293-3.293-3.293-1.414 1.414 4 4c.195.195.451.293.707.293z"/></g></g></svg>