<svg id="Layer_1" enable-background="new 0 0 256 256" height="512" viewBox="0 0 256 256" width="512" xmlns="http://www.w3.org/2000/svg"><g><path d="m224.4 60.7c-16.1 0-29.1-13-29.1-29.1 0-2.6.4-5.3 1.1-7.8h-71.9c-2.8 0-5.1 2.3-5.1 5.1v161.8c0 2.8 2.3 5.1 5.1 5.1h110.5c2.8 0 5.1-2.3 5.1-5.1v-134.6c-4.7 3-10.1 4.6-15.7 4.6z" fill="#edf4fc"/><path d="m119.4 33.9c-.4 0-.8 0-1.1 0-3.9 0-7.7 1.1-11.1 3.1-3.9-6.6-11-10.6-18.6-10.6h-11.1c-21.6.1-39.1 17.6-39.2 39.2v17.5c3.5-2.8 7.9-4 12.3-3.3v-1.8c0-1.1.9-2 2-2h.4c6.9 1.4 27.3 3.9 41.2-13.5.7-.9 2-1 2.9-.3.1 0 .1.1.2.1 2.8 2.8 9.7 8 22.1 9.5z" fill="#818182"/><path d="m119.4 71.8c-12.5-1.5-19.3-6.7-22.1-9.5-.8-.8-2.1-.8-2.9 0-.1.1-.1.1-.1.2-13.9 17.4-34.3 15-41.2 13.5-1.1-.2-2.2.5-2.4 1.6v.4 30.5c.1 20.9 17 37.9 37.9 37.9 12.2 0 23.7-6 30.8-15.9z" fill="#f9d0b4"/><path d="m206 212.3h-2.2v-2.3c0-1.7-1.4-3-3-3-1.7 0-3 1.4-3 3v2.2h-2.2c-1.7 0-3 1.4-3 3 0 1.7 1.4 3 3 3h2.2v2.2c0 1.7 1.4 3 3 3 1.7 0 3-1.4 3-3v-2.2h2.2c1.7 0 3-1.4 3-3 .1-1.6-1.3-2.9-3-2.9z" fill="#70d6f9"/><circle cx="56.2" cy="7.4" fill="#70d6f9" r="3.2"/><circle cx="241.2" cy="214.4" fill="#f5c84c" r="3.2"/><circle cx="190.2" cy="236.4" fill="#87d147" r="3.2"/><path d="m44.3 26.9c-4-.7-7.1-3.8-7.9-7.7 0-.1-.1-.2-.2-.1-.1 0-.1.1-.1.1-.8 4-3.9 7-7.9 7.7-.1 0-.2.1-.2.2s.1.1.2.2c4 .7 7.1 3.8 7.9 7.7 0 .1.1.2.2.1.1 0 .1-.1.1-.1.8-4 3.9-7 7.9-7.7.1 0 .2-.1.2-.2s-.1-.2-.2-.2z" fill="#f5c84c"/><path d="m46.8 137.4c-2.7-.5-4.9-2.6-5.5-5.3 0-.1-.1-.1-.1-.1-.1 0-.1 0-.1.1-.6 2.7-2.7 4.8-5.5 5.3-.1 0-.1.1-.1.1 0 .1 0 .1.1.1 2.7.5 4.9 2.6 5.5 5.3 0 .1.1.1.1.1.1 0 .1 0 .1-.1.6-2.7 2.7-4.8 5.5-5.3.1 0 0-.1 0-.2 0 .1 0 .1 0 0z" fill="#fc657e"/><path d="m50.7 108.5v-28.7c-8.6-1.4-16.8 4.5-18.2 13.1s4.5 16.8 13.1 18.2c1.7.3 3.5.3 5.2 0-.1-.9-.1-1.7-.1-2.6z" fill="#f9d0b4"/><path d="m170.7 195.7h-46.2c-2.8 0-5.1-2.3-5.1-5.1v-30.2l-5.3-2.6c-4.2-2.1-6.8-6.3-6.8-11v-5.4c-5.7 3.3-12.1 5-18.7 5-6.6 0-13-1.7-18.7-5v5.4c0 4.7-2.6 8.9-6.8 11l-8.9 4.4c-2.2 1.1-4.5 1.9-6.9 2.5l-28 7c-6.8 1.7-11.7 7.7-12.1 14.7l-4.7 59.7c-.3 3.7 2.5 7 6.2 7.3h.5 158.8c3.7 0 6.8-3 6.8-6.8 0-.2 0-.4 0-.5z" fill="#70d6f9"/><path d="m119.4 160.5-5.3-2.6c-4.2-2.1-6.8-6.3-6.8-11v-5.4c-5.7 3.3-12.1 5-18.7 5-6.6 0-13-1.7-18.7-5v5.4c0 4.7-2.6 8.9-6.8 11l-6.5 3.2c6.9 11 19 17.7 32 17.7 12.2 0 23.7-6 30.8-15.9z" fill="#f9d0b4"/><path d="m88.6 128.3c-6.9 0-13.3-3.5-16.9-9.3-.7-1.2-.4-2.7.8-3.5s2.7-.4 3.5.8c4.4 7 13.6 9.1 20.6 4.7 1.9-1.2 3.5-2.8 4.7-4.7.7-1.2 2.3-1.5 3.5-.8s1.5 2.3.8 3.5c-3.7 5.7-10.1 9.3-17 9.3z"/><circle cx="72.3" cy="97.1" r="4.5"/><circle cx="105.7" cy="97.1" r="4.5"/><path d="m48.2 113.8c-10.1 0-18.4-8.1-18.4-18.3s8.1-18.4 18.3-18.4c1 0 2 .1 3 .2 1.2.2 2.1 1.2 2.1 2.5v28.7c0 .7 0 1.5.1 2.4.1 1.3-.8 2.4-2.1 2.6-1 .2-2 .3-3 .3zm0-31.7c-7.4 0-13.3 6-13.3 13.3 0 7.4 6 13.3 13.3 13.3 0-.1 0-.2 0-.3z"/><path d="m168 256h-158.7c-5.1 0-9.3-4.1-9.3-9.3 0-.2 0-.5 0-.7l4.7-59.7c.4-8.1 6.1-14.9 14-16.9l28-7c2.2-.6 4.3-1.3 6.4-2.3l8.9-4.4c3.3-1.6 5.5-5 5.4-8.7v-5.4c0-1.4 1.1-2.5 2.5-2.5.4 0 .9.1 1.2.3 10.8 6.2 24.1 6.2 34.9 0 1.2-.7 2.7-.3 3.4.9.2.4.3.8.3 1.2v5.4c0 3.7 2.1 7.1 5.4 8.7l5.3 2.6c.9.4 1.4 1.3 1.4 2.2v30.2c0 1.4 1.1 2.6 2.6 2.6h46.2c1.3 0 2.4 1 2.5 2.3l4 50.5c.4 5.1-3.4 9.6-8.5 10-.2 0-.4 0-.6 0zm-95.6-110.4v1.3c0 5.6-3.2 10.8-8.2 13.2l-8.9 4.4c-2.3 1.2-4.8 2.1-7.4 2.7l-28 7c-5.8 1.4-9.9 6.4-10.2 12.4l-4.7 59.8c-.2 2.3 1.6 4.4 3.9 4.6h.3 158.8c2.4 0 4.3-1.9 4.3-4.3 0-.1 0-.2 0-.3l-3.8-48.2h-43.9c-4.2 0-7.6-3.4-7.6-7.6v-28.6l-3.9-1.9c-5.1-2.5-8.2-7.6-8.2-13.2v-1.3c-10.4 4.5-22.2 4.5-32.5 0z"/><path d="m88.6 181.3c-13.9 0-26.8-7.1-34.1-18.8-.7-1.2-.4-2.7.8-3.5.1 0 .2-.1.2-.1l6.5-3.2c3.3-1.6 5.5-5 5.4-8.7v-5.4c0-1.4 1.1-2.5 2.5-2.5.4 0 .9.1 1.2.3 10.8 6.2 24.1 6.2 34.9 0 1.2-.7 2.7-.3 3.4.9.2.4.3.8.3 1.2v5.4c0 3.7 2.1 7.1 5.4 8.7l5.3 2.6c.9.4 1.4 1.3 1.4 2.2v2.3c0 .5-.2 1-.5 1.5-7.4 10.7-19.6 17-32.7 17.1zm-28.3-19.3c11.6 15.6 33.8 18.9 49.4 7.2 2.7-2 5.2-4.5 7.2-7.2l-3.9-1.9c-5.1-2.5-8.2-7.6-8.2-13.2v-1.3c-10.3 4.6-22.1 4.6-32.4 0v1.3c0 5.6-3.2 10.8-8.2 13.2z"/><circle cx="224.4" cy="31.6" fill="#87d147" r="29.1"/><path d="m218 43.5-8.9-8.9c-2-1.9-2-5.1-.1-7.1s5.1-2 7.1-.1c0 0 .1.1.1.1l5.4 5.4 11.3-11.3c1.9-2 5.1-2 7.1-.1s2 5.1.1 7.1c0 0-.1.1-.1.1l-14.8 14.8c-2.1 2-5.2 2-7.2 0z" fill="#edf4fc"/><path d="m224.4 63.2c-17.4 0-31.6-14.1-31.6-31.6s14.2-31.6 31.6-31.6 31.6 14.1 31.6 31.6c0 17.4-14.2 31.6-31.6 31.6zm0-58.2c-14.7 0-26.6 11.9-26.6 26.6s11.9 26.6 26.6 26.6 26.6-11.9 26.6-26.6-11.9-26.6-26.6-26.6z"/><path d="m221.6 47.5c-2 0-3.9-.8-5.3-2.2l-8.9-8.9c-3-2.9-3.1-7.6-.2-10.6s7.6-3.1 10.6-.2c.1.1.2.2.2.2l3.6 3.6 9.5-9.5c2.9-3 7.6-3.1 10.6-.2s3.1 7.6.2 10.6c-.1.1-.1.1-.2.2l-14.8 14.8c-1.4 1.4-3.3 2.2-5.3 2.2zm-1.8-5.7c.5.5 1.1.7 1.8.7.7 0 1.3-.3 1.8-.7l14.8-14.8c1-1 1-2.6 0-3.5-1-.9-2.5-.9-3.5 0l-11.3 11.3c-1 1-2.6 1-3.5 0l-5.4-5.4c-1-.9-2.5-.9-3.5 0-1 1-1 2.6 0 3.5z"/><path d="m235 198.2h-110.5c-4.2 0-7.6-3.4-7.6-7.6v-161.7c0-4.2 3.4-7.6 7.6-7.6h71.9c1.4 0 2.5 1.1 2.5 2.5 0 .2 0 .5-.1.7-3.9 14.1 4.3 28.8 18.5 32.7 7.3 2 15.1.9 21.5-3.2 1.2-.7 2.7-.4 3.5.8.3.4.4.9.4 1.3v134.6c-.1 4.1-3.5 7.5-7.7 7.5zm-110.5-171.9c-1.4 0-2.6 1.1-2.6 2.6v161.8c0 1.4 1.1 2.6 2.6 2.6h110.5c1.4 0 2.6-1.1 2.6-2.6v-130.4c-15.8 7.3-34.6.4-41.9-15.5-2.7-5.8-3.5-12.2-2.4-18.5z"/><path d="m38.3 85.6c-1.4 0-2.5-1.1-2.5-2.5v-17.5c0-23 18.7-41.6 41.7-41.7h11.1c7.7 0 14.8 3.7 19.4 9.8 3.6-1.7 7.6-2.5 11.5-2.3 1.3.1 2.4 1.2 2.4 2.5v37.8c0 1.4-1.1 2.5-2.5 2.5-.1 0-.2 0-.3 0-12.6-1.5-19.9-6.6-23.2-9.8-14.5 17.9-35.7 15.6-42.7 14.2v1.2c0 1.4-1.1 2.5-2.5 2.5-.1 0-.3 0-.4 0-.7-.1-1.4-.2-2.1-.2-3 0-6 1-8.3 2.9-.4.4-1 .6-1.6.6zm39.2-56.7c-20.2 0-36.6 16.4-36.7 36.7v13.1c2.3-1 4.8-1.6 7.4-1.5.5-2.5 2.9-4 5.3-3.5 7.5 1.4 26.1 3.3 38.8-12.7 1.6-2 4.4-2.3 6.4-.7.1.1.2.2.4.3 2.5 2.5 8 6.6 17.9 8.3v-32.4c-3 .2-5.9 1.1-8.4 2.7-1.2.7-2.7.3-3.4-.9-3.5-5.8-9.7-9.3-16.4-9.4z"/><path d="m88.6 149c-22.3 0-40.4-18.1-40.4-40.4v-30.6c0-1.4.6-2.7 1.7-3.5 1.1-.9 2.5-1.2 3.8-.9 7.3 1.5 25.9 3.4 38.6-12.6 1.6-2 4.4-2.3 6.4-.7.1.1.2.2.4.3 2.7 2.7 9 7.4 20.7 8.8 1.3.2 2.2 1.2 2.2 2.5v58.8c0 .5-.2 1-.5 1.5-7.6 10.4-19.9 16.7-32.9 16.8zm-35.4-70.4v29.9c0 19.6 15.8 35.4 35.4 35.4 11.2 0 21.7-5.3 28.4-14.2v-55.8c-11.3-1.8-17.9-6.5-21-9.5-14.6 17.9-35.8 15.6-42.8 14.2z"/><path d="m197.5 73.3h-35c-1.4 0-2.5-1.1-2.5-2.5s1.1-2.5 2.5-2.5h35c1.4 0 2.5 1.1 2.5 2.5s-1.1 2.5-2.5 2.5z"/><path d="m217.9 93.3h-64.8c-1.4 0-2.5-1.1-2.5-2.5s1.1-2.5 2.5-2.5h64.8c1.4 0 2.5 1.1 2.5 2.5s-1.1 2.5-2.5 2.5z"/><path d="m217.9 106h-64.8c-1.4 0-2.5-1.1-2.5-2.5s1.1-2.5 2.5-2.5h64.8c1.4 0 2.5 1.1 2.5 2.5s-1.1 2.5-2.5 2.5z"/><path d="m217.9 118.7h-64.8c-1.4 0-2.5-1.1-2.5-2.5s1.1-2.5 2.5-2.5h64.8c1.4 0 2.5 1.1 2.5 2.5s-1.1 2.5-2.5 2.5z"/><path d="m217.9 131.4h-64.8c-1.4 0-2.5-1.1-2.5-2.5s1.1-2.5 2.5-2.5h64.8c1.4 0 2.5 1.1 2.5 2.5 0 1.3-1.1 2.5-2.5 2.5z"/><path d="m217.9 144h-64.8c-1.4 0-2.5-1.1-2.5-2.5s1.1-2.5 2.5-2.5h64.8c1.4 0 2.5 1.1 2.5 2.5s-1.1 2.5-2.5 2.5z"/><path d="m217.9 156.7h-64.8c-1.4 0-2.5-1.1-2.5-2.5s1.1-2.5 2.5-2.5h64.8c1.4 0 2.5 1.1 2.5 2.5s-1.1 2.5-2.5 2.5z"/><path d="m141.9 93.3h-1.9c-1.4 0-2.5-1.1-2.5-2.5s1.1-2.5 2.5-2.5h1.9c1.4 0 2.5 1.1 2.5 2.5s-1.1 2.5-2.5 2.5z"/><path d="m141.9 106h-1.9c-1.4 0-2.5-1.1-2.5-2.5s1.1-2.5 2.5-2.5h1.9c1.4 0 2.5 1.1 2.5 2.5s-1.1 2.5-2.5 2.5z"/><path d="m141.9 118.7h-1.9c-1.4 0-2.5-1.1-2.5-2.5s1.1-2.5 2.5-2.5h1.9c1.4 0 2.5 1.1 2.5 2.5s-1.1 2.5-2.5 2.5z"/><path d="m141.9 131.4h-1.9c-1.4 0-2.5-1.1-2.5-2.5s1.1-2.5 2.5-2.5h1.9c1.4 0 2.5 1.1 2.5 2.5 0 1.3-1.1 2.5-2.5 2.5z"/><path d="m141.9 144h-1.9c-1.4 0-2.5-1.1-2.5-2.5s1.1-2.5 2.5-2.5h1.9c1.4 0 2.5 1.1 2.5 2.5s-1.1 2.5-2.5 2.5z"/><path d="m141.9 156.7h-1.9c-1.4 0-2.5-1.1-2.5-2.5s1.1-2.5 2.5-2.5h1.9c1.4 0 2.5 1.1 2.5 2.5s-1.1 2.5-2.5 2.5z"/><path d="m33 253c-1.4 0-2.5-1.1-2.5-2.5v-38.5c0-1.4 1.1-2.5 2.5-2.5s2.5 1.1 2.5 2.5v38.5c0 1.4-1.1 2.5-2.5 2.5z"/><path d="m145 253c-1.4 0-2.5-1.1-2.5-2.5v-38.5c0-1.4 1.1-2.5 2.5-2.5s2.5 1.1 2.5 2.5v38.5c0 1.4-1.1 2.5-2.5 2.5z"/></g></svg>