<?xml version="1.0" encoding="iso-8859-1"?>
<!-- Generator: Adobe Illustrator 19.0.0, SVG Export Plug-In . SVG Version: 6.00 Build 0)  -->
<svg version="1.1" id="Capa_1" xmlns="http://www.w3.org/2000/svg" xmlns:xlink="http://www.w3.org/1999/xlink" x="0px" y="0px"
	 viewBox="0 0 511.998 511.998" style="enable-background:new 0 0 511.998 511.998;" xml:space="preserve">
<path style="fill:#EDEBED;" d="M103.693,376.242v112.226c0,8.854,7.178,16.032,16.032,16.032h272.548
	c8.854,0,16.032-7.178,16.032-16.032V376.242H103.693z"/>
<rect x="103.689" y="376.24" style="fill:#DBD9DC;" width="304.61" height="24.05"/>
<g>
	<path style="fill:#4B3F4E;" d="M55.596,175.839c-8.854,0-16.032,7.178-16.032,16.032s7.178,16.032,16.032,16.032
		s16.032,7.178,16.032,16.032v-64.129C71.628,168.661,64.45,175.839,55.596,175.839z"/>
	<path style="fill:#4B3F4E;" d="M456.402,175.839c-8.854,0-16.032-7.178-16.032-16.032v64.129c0-8.855,7.178-16.032,16.032-16.032
		s16.032-7.178,16.032-16.032C472.434,183.016,465.256,175.839,456.402,175.839z"/>
</g>
<path style="fill:#6F6571;" d="M408.305,376.242H103.693c-17.709,0-32.065-14.356-32.065-32.065V39.565
	c0-17.709,14.356-32.065,32.065-32.065h304.613c17.709,0,32.065,14.356,32.065,32.065v304.613
	C440.37,361.886,426.014,376.242,408.305,376.242z"/>
<path style="fill:#5D5360;" d="M416.322,312.113V47.581c0-8.854-7.178-16.032-16.032-16.032H135.757
	c-4.427,0-8.016-3.589-8.016-8.016V7.5h-24.048c-17.709,0-32.065,14.356-32.065,32.065v304.613
	c0,17.709,14.356,32.065,32.065,32.065h304.613c17.709,0,32.065-14.356,32.065-32.065V320.13h-16.032
	C419.911,320.129,416.322,316.54,416.322,312.113z"/>
<rect x="111.709" y="47.581" style="fill:#EDEBED;" width="288.58" height="288.58"/>
<path style="fill:#5D5360;" d="M135.757,376.242v56.113c0,4.427,3.589,8.016,8.016,8.016h224.452c4.427,0,8.016-3.589,8.016-8.016
	v-56.113H135.757z"/>
<rect x="135.759" y="376.24" style="fill:#4B3F4E;" width="240.48" height="24.05"/>
<path style="fill:#5D5360;" d="M344.176,183.855H167.822c-4.427,0-8.016-3.589-8.016-8.016v-32.065c0-4.427,3.589-8.016,8.016-8.016
	h176.355c4.427,0,8.016,3.589,8.016,8.016v32.065C352.193,180.266,348.604,183.855,344.176,183.855z"/>
<g>
	<circle style="fill:#C9C6CA;" cx="175.839" cy="239.97" r="16.03"/>
	<circle style="fill:#C9C6CA;" cx="336.159" cy="239.97" r="16.03"/>
</g>
<g>
	<circle style="fill:#E6646E;" cx="255.999" cy="239.97" r="16.03"/>
	<path style="fill:#E6646E;" d="M344.176,183.855h-24.048v-48.097h24.048c4.427,0,8.016,3.589,8.016,8.016v32.065
		C352.193,180.266,348.604,183.855,344.176,183.855z"/>
</g>
<path style="fill:#DBD9DC;" d="M231.951,312.113c-53.126,0-96.194-43.067-96.194-96.194V47.581h-24.048v288.581h288.58v-24.048
	L231.951,312.113L231.951,312.113z"/>
<path d="M456.402,168.339c-4.705,0-8.532-3.828-8.532-8.532V39.564C447.87,17.749,430.122,0,408.306,0H103.692
	C81.876,0,64.128,17.749,64.128,39.564v120.242c0,4.705-3.828,8.532-8.532,8.532c-12.976,0-23.532,10.557-23.532,23.532
	s10.557,23.532,23.532,23.532c4.705,0,8.532,3.828,8.532,8.532v120.242c0,19.251,13.824,35.327,32.064,38.842v105.448
	c0,12.976,10.557,23.532,23.532,23.532h272.549c12.976,0,23.532-10.557,23.532-23.532V383.02
	c18.24-3.516,32.064-19.591,32.064-38.842V223.936c0-4.705,3.828-8.532,8.532-8.532c12.976,0,23.532-10.557,23.532-23.532
	C479.935,178.895,469.378,168.339,456.402,168.339z M55.596,200.403c-4.705,0-8.532-3.828-8.532-8.532
	c0-4.705,3.828-8.532,8.532-8.532c3.009,0,5.885-0.574,8.532-1.608v20.28C61.48,200.977,58.605,200.403,55.596,200.403z
	 M392.273,497H119.725c-4.705,0-8.532-3.828-8.532-8.532V383.742h17.065v48.613c0,8.556,6.96,15.516,15.516,15.516h224.451
	c8.556,0,15.516-6.96,15.516-15.516v-48.613h17.065v104.726C400.806,493.172,396.978,497,392.273,497z M176.354,383.742v24.564
	c0,4.142,3.358,7.5,7.5,7.5s7.5-3.358,7.5-7.5v-24.564h33.097v24.564c0,4.142,3.358,7.5,7.5,7.5s7.5-3.358,7.5-7.5v-24.564h33.097
	v24.564c0,4.142,3.358,7.5,7.5,7.5s7.5-3.358,7.5-7.5v-24.564h33.097v24.564c0,4.142,3.358,7.5,7.5,7.5s7.5-3.358,7.5-7.5v-24.564
	h33.097v48.613c0,0.285-0.231,0.516-0.516,0.516H143.773c-0.285,0-0.516-0.231-0.516-0.516v-48.613H176.354z M432.87,344.177
	c0,13.545-11.02,24.564-24.564,24.564H103.692c-13.545,0-24.564-11.02-24.564-24.564V39.564C79.128,26.02,90.147,15,103.692,15
	h304.613c13.545,0,24.564,11.02,24.564,24.564v304.613H432.87z M456.402,200.403c-3.009,0-5.885,0.574-8.532,1.608v-20.28
	c2.647,1.034,5.523,1.608,8.532,1.608c4.705,0,8.532,3.828,8.532,8.532C464.935,196.576,461.107,200.403,456.402,200.403z"/>
<path d="M352.193,55.081c4.142,0,7.5-3.358,7.5-7.5s-3.358-7.5-7.5-7.5H111.708c-4.142,0-7.5,3.358-7.5,7.5v288.581
	c0,4.142,3.358,7.5,7.5,7.5h16.03c4.142,0,7.5-3.358,7.5-7.5s-3.358-7.5-7.5-7.5h-8.53V55.081H352.193z"/>
<path d="M400.29,40.081h-16.03c-4.142,0-7.5,3.358-7.5,7.5s3.358,7.5,7.5,7.5h8.53v273.581H159.805c-4.142,0-7.5,3.358-7.5,7.5
	s3.358,7.5,7.5,7.5h240.484c4.142,0,7.5-3.358,7.5-7.5V47.581C407.79,43.438,404.432,40.081,400.29,40.081z"/>
<path d="M359.692,143.774c0-8.556-6.96-15.516-15.516-15.516H167.822c-8.556,0-15.516,6.96-15.516,15.516v32.064
	c0,8.556,6.96,15.516,15.516,15.516h176.354c8.556,0,15.516-6.96,15.516-15.516V143.774z M231.436,143.258h17.064v33.097h-17.064
	V143.258z M216.436,176.355h-17.064v-33.097h17.064V176.355z M263.499,143.258h17.064v33.097h-17.064V143.258z M295.563,143.258
	h17.064v33.097h-17.064V143.258z M167.307,175.839v-32.064c0-0.285,0.231-0.516,0.516-0.516h16.548v33.097h-16.548
	C167.537,176.355,167.307,176.123,167.307,175.839z M344.692,175.839c0,0.285-0.231,0.516-0.516,0.516h-16.548v-33.097h16.548
	c0.285,0,0.516,0.231,0.516,0.516V175.839z"/>
<path d="M152.307,239.968c0,12.976,10.557,23.532,23.532,23.532s23.532-10.557,23.532-23.532s-10.557-23.532-23.532-23.532
	S152.307,226.992,152.307,239.968z M184.37,239.968c0,4.705-3.828,8.532-8.532,8.532s-8.532-3.828-8.532-8.532
	s3.828-8.532,8.532-8.532S184.37,235.263,184.37,239.968z"/>
<path d="M336.16,216.436c-12.976,0-23.532,10.557-23.532,23.532S323.185,263.5,336.16,263.5s23.532-10.557,23.532-23.532
	S349.136,216.436,336.16,216.436z M336.16,248.5c-4.705,0-8.532-3.828-8.532-8.532s3.828-8.532,8.532-8.532s8.532,3.828,8.532,8.532
	S340.865,248.5,336.16,248.5z"/>
<path d="M232.467,239.968c0,12.976,10.557,23.532,23.532,23.532c12.975,0,23.532-10.557,23.532-23.532s-10.556-23.532-23.532-23.532
	C243.023,216.436,232.467,226.992,232.467,239.968z M264.531,239.968c0,4.705-3.828,8.532-8.532,8.532
	c-4.704,0-8.532-3.828-8.532-8.532s3.828-8.532,8.532-8.532C260.703,231.436,264.531,235.263,264.531,239.968z"/>
<g>
</g>
<g>
</g>
<g>
</g>
<g>
</g>
<g>
</g>
<g>
</g>
<g>
</g>
<g>
</g>
<g>
</g>
<g>
</g>
<g>
</g>
<g>
</g>
<g>
</g>
<g>
</g>
<g>
</g>
</svg>
