<svg height="512" viewBox="0 0 256 256" width="512" xmlns="http://www.w3.org/2000/svg"><rect fill="#afafaf" height="247.5" rx="10" width="189" x="33.5" y="4.25"/><path d="m22.458 37.292h211.083v167h-211.083z" fill="#72c1e8" transform="matrix(0 1 -1 0 248.792 -7.208)"/><path d="m73.582 39.75h108.835v50.726h-108.835z" fill="#fff"/><circle cx="128" cy="154.896" fill="#13bf6d" r="34.104" transform="matrix(.997 -.071 .071 .997 -10.658 9.463)"/><path d="m104.432 244.5h-4.961a2.5 2.5 0 0 1 0-5h4.961a2.5 2.5 0 1 1 0 5zm-14.961 0h-44.971a2.5 2.5 0 0 1 -2.5-2.5v-6.029a2.5 2.5 0 0 1 5 0v3.529h42.471a2.5 2.5 0 0 1 0 5z" fill="#efefef"/><path d="m211.5 244.5h-44.971a2.5 2.5 0 0 1 0-5h42.471v-3.529a2.5 2.5 0 0 1 5 0v6.029a2.5 2.5 0 0 1 -2.5 2.5zm-54.971 0h-4.688a2.5 2.5 0 0 1 0-5h4.688a2.5 2.5 0 0 1 0 5z" fill="#efefef"/><path d="m198.5 216.4h-126.766a2.5 2.5 0 1 1 0-5h124.266v-183.733a2.5 2.5 0 0 1 5 0v186.233a2.5 2.5 0 0 1 -2.5 2.5zm-136.766 0h-3.734a2.5 2.5 0 0 1 0-5h3.734a2.5 2.5 0 0 1 0 5z" fill="#c5e5ff"/><path d="m128 181.489a26.6 26.6 0 0 1 -18.813-45.4 2.5 2.5 0 0 1 3.535 3.536 21.6 21.6 0 0 0 15.278 36.864 21.935 21.935 0 0 0 4.392-.447 2.5 2.5 0 1 1 1.007 4.9 26.927 26.927 0 0 1 -5.399.547zm11.96-5.513a2.5 2.5 0 0 1 .582-3.487 21.72 21.72 0 0 0 2.733-2.317 2.5 2.5 0 0 1 3.536 3.536 26.745 26.745 0 0 1 -3.364 2.85 2.5 2.5 0 0 1 -3.486-.582z" fill="#76ffba"/><path d="m33.5 58.96a2.5 2.5 0 1 0 -2.5-2.5 2.5 2.5 0 0 0 2.5 2.5z"/><path d="m225 241.75v-227.5a12.517 12.517 0 0 0 -12.5-12.5h-169a12.517 12.517 0 0 0 -12.5 12.5v32.21a2.5 2.5 0 1 0 5 0v-32.21a7.529 7.529 0 0 1 7.5-7.5h169a7.529 7.529 0 0 1 7.5 7.5v227.5a7.529 7.529 0 0 1 -7.5 7.5h-169a7.529 7.529 0 0 1 -7.5-7.5v-175.29a2.5 2.5 0 0 0 -5 0v175.29a12.517 12.517 0 0 0 12.5 12.5h169a12.517 12.517 0 0 0 12.5-12.5z"/><path d="m214 15.25a2.5 2.5 0 0 0 -2.5-2.5h-167a2.5 2.5 0 0 0 -2.5 2.5v211.08a2.5 2.5 0 0 0 2.5 2.5h167a2.492 2.492 0 0 0 2.5-2.5v-29.16a2.5 2.5 0 0 0 -5-.02v26.68h-162v-206.08h162v159.42a2.5 2.5 0 0 0 5 0z"/><circle cx="211.5" cy="187.17" r="2.5"/><path d="m120 236.542a2.5 2.5 0 0 0 0 5h16a2.5 2.5 0 0 0 0-5z"/><path d="m184.917 90.476a2.5 2.5 0 0 0 -2.5-2.5h-108.834a2.5 2.5 0 0 0 0 5h108.834a2.5 2.5 0 0 0 2.5-2.5z"/><path d="m182.417 37.25h-108.834a2.5 2.5 0 0 0 0 5h108.834a2.5 2.5 0 0 0 0-5z"/><path d="m116.84 153.24a2.577 2.577 0 0 0 -3.53-.22 2.5 2.5 0 0 0 -.23 3.52v.01l7.53 8.53a2.5 2.5 0 0 0 3.56.18l18.06-16.55a2.489 2.489 0 0 0 .15-3.53 2.574 2.574 0 0 0 -3.53-.15l-16.18 14.83z"/><path d="m91.4 154.9a36.6 36.6 0 1 0 36.6-36.61 36.576 36.576 0 0 0 -36.6 36.61zm68.2 0a31.6 31.6 0 1 1 -31.6-31.61 31.712 31.712 0 0 1 31.6 31.61z"/><path d="m86.878 77.694v-7.1h7.207a10.281 10.281 0 0 0 0-20.561h-9.707a2.5 2.5 0 0 0 -2.5 2.5v25.161a2.5 2.5 0 0 0 5 0zm0-22.662h7.207a5.281 5.281 0 0 1 0 10.561h-7.207z"/><path d="m145.041 77.291v-24.356a2.5 2.5 0 0 0 -5 0v24.356a2.5 2.5 0 0 0 5 0z"/><path d="m130.947 80.194a2.5 2.5 0 0 0 2.5-2.5v-16.419a11.244 11.244 0 0 0 -22.488 0v16.419a2.5 2.5 0 1 0 5 0v-7.1h12.488v7.1a2.5 2.5 0 0 0 2.5 2.5zm-14.988-14.6v-4.319a6.244 6.244 0 0 1 12.488 0v4.318z"/><path d="m162.878 80.194a11.256 11.256 0 0 0 11.244-11.243v-7.676a11.256 11.256 0 0 0 -11.244-11.243h-8.743a2.5 2.5 0 0 0 -2.5 2.5v25.162a2.5 2.5 0 0 0 2.5 2.5zm-6.243-25.162h6.243a6.251 6.251 0 0 1 6.244 6.243v7.676a6.25 6.25 0 0 1 -6.244 6.243h-6.243z"/></svg>