<svg enable-background="new 0 0 256 256" height="512" viewBox="0 0 256 256" width="512" xmlns="http://www.w3.org/2000/svg"><path d="m208.66 122.481v123.14c0 2.77-2.24 5-5 5h-151.32c-2.76 0-5-2.23-5-5v-123.14h.18l32.88-33.01 44.06-44.22c1.95-1.96 5.13-1.96 7.08 0l44.06 44.22 32.88 33.01z" fill="#5fcdff"/><path d="m234.71 122.481h-26.23l-32.88-33.01-44.06-44.22c-1.95-1.96-5.13-1.96-7.08 0l-44.06 44.22-32.88 33.01h-26.23c-4.45 0-6.68-5.37-3.54-8.53l50.87-51.06 55.83-56.04c1.96-1.96 5.13-1.97 7.09 0l55.84 56.04 50.87 51.06c3.14 3.16.91 8.53-3.54 8.53z" fill="#5fcdff"/><circle cx="128" cy="110.477" fill="#ffe2e2" r="22.787"/><path d="m154.726 250.626h-53.452v-59.922c0-14.76 11.966-26.726 26.726-26.726 14.76 0 26.726 11.966 26.726 26.726z" fill="#b76c6c"/><path d="m234.71 122.481h-26.23l-32.88-33.01-44.06-44.22c-1.95-1.96-5.13-1.96-7.08 0l-44.06 44.22-32.88 33.01h-26.23c-4.45 0-6.68-5.37-3.54-8.53l50.87-51.06 55.83-56.04c1.96-1.96 5.13-1.97 7.09 0l55.84 56.04 50.87 51.06c3.14 3.16.91 8.53-3.54 8.53z" fill="#b76c6c"/><path d="m234.71 122.481h-11c1.37-1.85 1.46-4.6-.46-6.53l-50.87-51.06-52.88-53.07 4.95-4.97c1.96-1.96 5.13-1.97 7.09 0l55.84 56.04 50.87 51.06c3.14 3.16.91 8.53-3.54 8.53z" fill="#965959"/><path d="m131.54 6.851 4.95 4.97-52.87 53.07-50.87 51.06c-1.92 1.93-1.83 4.68-.46 6.53h-11c-4.45 0-6.68-5.37-3.54-8.53l50.87-51.06 55.83-56.04c1.96-1.96 5.13-1.97 7.09 0z" fill="#c98585"/><path d="m135.5 132.001c-2.35.82-4.87 1.26-7.5 1.26-12.59 0-22.79-10.2-22.79-22.78 0-12.59 10.2-22.79 22.79-22.79 2.63 0 5.15.44 7.5 1.26-8.9 3.1-15.29 11.57-15.29 21.53 0 9.95 6.39 18.42 15.29 21.52z" fill="#ffefee"/><path d="m154.73 190.701v59.92h-15v-59.92c0-7.38-2.99-14.06-7.83-18.9-3.13-3.13-7.03-5.48-11.4-6.75 2.38-.7 4.9-1.07 7.5-1.07 7.38 0 14.06 2.99 18.9 7.82 4.84 4.84 7.83 11.52 7.83 18.9z" fill="#965959"/><path d="m135.5 165.051c-11.11 3.24-19.23 13.49-19.23 25.65v59.92h-15v-59.92c0-14.76 11.97-26.72 26.73-26.72 2.6 0 5.12.37 7.5 1.07z" fill="#c98585"/><path d="m208.48 122.481-32.88-33.01-44.06-44.22c-1.95-1.96-5.13-1.96-7.08 0l-3.96 3.97 40.1 40.25 30.126 30.08c1.879 1.876 2.934 4.422 2.934 7.076v118.994c0 2.77-2.24 5-5 5h15c2.76 0 5-2.23 5-5v-123.14z" fill="#30b6ff"/><path d="m95.4 89.471 40.1-40.25-3.96-3.97c-1.95-1.96-5.13-1.96-7.08 0l-44.06 44.22-32.88 33.01h-.18v123.14c0 2.77 2.24 5 5 5h15c-2.76 0-5-2.23-5-5l.174-119.018c.004-2.64 1.052-5.172 2.915-7.042z" fill="#73d7f9"/><g fill="#5f266d"><path d="m128 83.691c-14.77 0-26.79 12.02-26.79 26.79s12.02 26.78 26.79 26.78 26.79-12.01 26.79-26.78-12.02-26.79-26.79-26.79zm0 45.57c-10.36 0-18.79-8.42-18.79-18.78s8.43-18.79 18.79-18.79 18.79 8.43 18.79 18.79-8.43 18.78-18.79 18.78z"/><path d="m241.08 111.131-106.71-107.11c-3.529-3.529-9.232-3.518-12.75 0l-106.7 107.11c-5.65 5.672-1.628 15.35 6.37 15.35h22.05v119.14c0 4.97 4.04 9 9 9h151.32c4.96 0 9-4.03 9-9v-119.14h22.05c8.008 0 12.014-9.684 6.37-15.35zm-6.37 7.35h-24.56l-75.77-76.05c-3.533-3.533-9.212-3.537-12.76-.01l-75.77 76.06h-24.56c-.922 0-1.33-1.08-.71-1.7l106.71-107.11c.378-.378 1.014-.396 1.41 0l106.72 107.11c.62.62.212 1.7-.71 1.7zm-129.44 72.22c0-12.53 10.2-22.72 22.73-22.72s22.73 10.19 22.73 22.72v55.92h-45.46zm22.73-30.72c-16.94 0-30.73 13.78-30.73 30.72v55.92h-44.93c-.55 0-1-.44-1-1v-121.3l75.95-76.25c.388-.388 1.032-.388 1.42 0l75.95 76.25v121.3c0 .56-.45 1-1 1h-44.93v-55.92c0-16.94-13.79-30.72-30.73-30.72z"/><path d="m189.52 237.251c-2.209 0-4-1.791-4-4v-24c0-2.209 1.791-4 4-4s4 1.791 4 4v24c0 2.209-1.791 4-4 4zm0-39c-2.209 0-4-1.791-4-4v-7.084c0-2.209 1.791-4 4-4s4 1.791 4 4v7.084c0 2.209-1.791 4-4 4z"/></g></svg>