<svg height="512pt" viewBox="0 0 512 512" width="512pt" xmlns="http://www.w3.org/2000/svg"><path d="m179.199219 42.667969c0-18.851563-38.203125-34.132813-85.332031-34.132813-47.128907 0-85.332032 15.28125-85.332032 34.132813 0 18.851562 38.203125 34.132812 85.332032 34.132812 47.128906 0 85.332031-15.28125 85.332031-34.132812zm0 0" fill="#ffeb3a"/><path d="m179.199219 145.066406v51.199219c0 18.859375-38.230469 34.132813-85.332031 34.132813-47.105469 0-85.332032-15.273438-85.332032-34.132813v-51.199219c0 18.859375 38.226563 34.132813 85.332032 34.132813 47.101562 0 85.332031-15.273438 85.332031-34.132813zm0 0" fill="#fec108"/><path d="m179.199219 93.867188v51.199218c0 18.859375-38.230469 34.132813-85.332031 34.132813-47.105469 0-85.332032-15.273438-85.332032-34.132813v-51.199218c0 18.859374 38.226563 34.132812 85.332032 34.132812 47.101562 0 85.332031-15.273438 85.332031-34.132812zm0 0" fill="#f57c00"/><path d="m179.199219 42.667969v51.199219c0 18.859374-38.230469 34.132812-85.332031 34.132812-47.105469 0-85.332032-15.273438-85.332032-34.132812v-51.199219c0 18.855469 38.226563 34.132812 85.332032 34.132812 47.101562 0 85.332031-15.277343 85.332031-34.132812zm0 0" fill="#fec108"/><path d="m503.464844 42.667969c0 18.855469-38.226563 34.132812-85.332032 34.132812-4.351562 0-8.617187-.171875-12.800781-.425781-41.042969-2.390625-72.53125-16.554688-72.53125-33.707031 0-17.152344 31.488281-31.320313 72.53125-33.707031 4.183594-.257813 8.449219-.425782 12.800781-.425782 47.105469 0 85.332032 15.273438 85.332032 34.132813zm0 0" fill="#fec108"/><path d="m477.867188 42.667969c0-18.617188-32.476563-33.707031-72.535157-33.707031-40.058593 0-72.53125 15.089843-72.53125 33.707031 0 18.613281 32.472657 33.707031 72.53125 33.707031 40.058594 0 72.535157-15.09375 72.535157-33.707031zm0 0" fill="#ffeb3a"/><path d="m503.464844 42.667969v51.199219c0 18.859374-38.226563 34.132812-85.332032 34.132812-4.351562 0-8.617187-.171875-12.800781-.425781 41.046875-2.390625 72.535157-16.554688 72.535157-33.707031v-26.796876c15.785156-6.226562 25.597656-14.847656 25.597656-24.402343zm0 0" fill="#ff9801"/><path d="m503.464844 93.867188v51.199218c0 18.859375-38.226563 34.132813-85.332032 34.132813-4.351562 0-8.617187-.167969-12.800781-.425781 41.046875-2.390626 72.535157-16.554688 72.535157-33.707032v-26.792968c15.785156-6.230469 25.597656-14.847657 25.597656-24.40625zm0 0" fill="#d84315"/><path d="m503.464844 145.066406v51.199219c0 18.859375-38.226563 34.132813-85.332032 34.132813-4.351562 0-8.617187-.167969-12.800781-.425782 41.046875-2.386718 72.535157-16.554687 72.535157-33.707031v-26.792969c15.785156-6.230468 25.597656-14.847656 25.597656-24.40625zm0 0" fill="#ff9801"/><path d="m477.867188 67.070312v26.796876c0 17.152343-31.488282 31.316406-72.535157 33.707031-41.042969-2.390625-72.53125-16.554688-72.53125-33.707031v-51.199219c0 17.152343 31.488281 31.316406 72.53125 33.707031 4.183594.253906 8.449219.425781 12.800781.425781 20.332032.347657 40.5625-2.949219 59.734376-9.730469zm0 0" fill="#fec108"/><path d="m477.867188 118.273438v26.792968c0 17.152344-31.488282 31.316406-72.535157 33.707032-41.042969-2.390626-72.53125-16.554688-72.53125-33.707032v-51.199218c0 17.152343 31.488281 31.316406 72.53125 33.707031 4.183594.253906 8.449219.425781 12.800781.425781 20.332032.347656 40.5625-2.945312 59.734376-9.726562zm0 0" fill="#f57c00"/><path d="m477.867188 169.472656v26.792969c0 17.152344-31.488282 31.320313-72.535157 33.707031-41.042969-2.386718-72.53125-16.554687-72.53125-33.707031v-51.199219c0 17.152344 31.488281 31.316406 72.53125 33.707032 4.183594.257812 8.449219.425781 12.800781.425781 20.332032.347656 40.5625-2.945313 59.734376-9.726563zm0 0" fill="#fec108"/><path d="m375.464844 349.867188v17.066406h-230.398438v-17.066406c.027344-9.414063 7.652344-17.039063 17.066406-17.066407h196.265626c9.414062.027344 17.039062 7.652344 17.066406 17.066407zm0 0" fill="#283593"/><path d="m349.867188 349.867188v17.066406h-204.800782v-17.066406c.027344-9.414063 7.652344-17.039063 17.066406-17.066407h170.667969c9.414063.027344 17.039063 7.652344 17.066407 17.066407zm0 0" fill="#3f51b5"/><path d="m375.464844 366.933594v119.464844c-.027344 9.414062-7.652344 17.039062-17.066406 17.066406h-196.265626c-9.414062-.027344-17.039062-7.652344-17.066406-17.066406v-119.464844zm0 0" fill="#607d8b"/><path d="m349.867188 366.933594v119.464844c-.027344 9.414062-7.652344 17.039062-17.066407 17.066406h-170.667969c-9.414062-.027344-17.039062-7.652344-17.066406-17.066406v-119.464844zm0 0" fill="#cfd8dc"/><path d="m332.800781 443.734375h-17.066406c-9.425781 0-17.066406-7.640625-17.066406-17.066406v-17.066407c0-9.425781 7.640625-17.066406 17.066406-17.066406h17.066406c9.425781 0 17.066407 7.640625 17.066407 17.066406v17.066407c0 9.425781-7.640626 17.066406-17.066407 17.066406zm0 0" fill="#f44335"/><path d="m93.867188 85.332031c-45.507813 0-93.867188-14.949219-93.867188-42.664062 0-27.71875 48.359375-42.667969 93.867188-42.667969 45.507812 0 93.867187 14.949219 93.867187 42.667969 0 27.714843-48.359375 42.664062-93.867187 42.664062zm0-68.265625c-46.882813 0-76.800782 15.164063-76.800782 25.601563 0 10.433593 29.917969 25.597656 76.800782 25.597656 46.882812 0 76.800781-15.164063 76.800781-25.597656 0-10.4375-29.917969-25.601563-76.800781-25.601563zm0 0"/><path d="m93.867188 136.535156c-45.507813 0-93.867188-14.953125-93.867188-42.667968 0-4.714844 3.820312-8.535157 8.535156-8.535157 4.710938 0 8.53125 3.820313 8.53125 8.535157 0 10.4375 29.917969 25.597656 76.800782 25.597656 46.882812 0 76.800781-15.160156 76.800781-25.597656 0-4.714844 3.820312-8.535157 8.53125-8.535157 4.714843 0 8.535156 3.820313 8.535156 8.535157 0 27.714843-48.359375 42.667968-93.867187 42.667968zm0 0"/><path d="m93.867188 187.734375c-45.507813 0-93.867188-14.953125-93.867188-42.667969 0-4.710937 3.820312-8.53125 8.535156-8.53125 4.710938 0 8.53125 3.820313 8.53125 8.53125 0 10.4375 29.917969 25.601563 76.800782 25.601563 46.882812 0 76.800781-15.164063 76.800781-25.601563 0-4.710937 3.820312-8.53125 8.53125-8.53125 4.714843 0 8.535156 3.820313 8.535156 8.53125 0 27.714844-48.359375 42.667969-93.867187 42.667969zm0 0"/><path d="m93.867188 238.933594c-45.507813 0-93.867188-14.949219-93.867188-42.667969v-153.597656c0-4.714844 3.820312-8.535157 8.535156-8.535157 4.710938 0 8.53125 3.820313 8.53125 8.535157v153.597656c0 10.4375 29.917969 25.601563 76.800782 25.601563 46.882812 0 76.800781-15.164063 76.800781-25.601563v-153.597656c0-4.714844 3.820312-8.535157 8.53125-8.535157 4.714843 0 8.535156 3.820313 8.535156 8.535157v153.597656c0 27.71875-48.359375 42.667969-93.867187 42.667969zm0 0"/><path d="m418.132812 85.332031c-45.507812 0-93.867187-14.949219-93.867187-42.664062 0-27.71875 48.359375-42.667969 93.867187-42.667969 45.507813 0 93.867188 14.949219 93.867188 42.667969 0 27.714843-48.359375 42.664062-93.867188 42.664062zm0-68.265625c-46.882812 0-76.800781 15.164063-76.800781 25.601563 0 10.433593 29.917969 25.597656 76.800781 25.597656 46.882813 0 76.800782-15.164063 76.800782-25.597656 0-10.4375-29.917969-25.601563-76.800782-25.601563zm0 0"/><path d="m418.132812 136.535156c-45.507812 0-93.867187-14.953125-93.867187-42.667968 0-4.714844 3.820313-8.535157 8.535156-8.535157 4.710938 0 8.53125 3.820313 8.53125 8.535157 0 10.4375 29.917969 25.597656 76.800781 25.597656 46.882813 0 76.800782-15.160156 76.800782-25.597656 0-4.714844 3.820312-8.535157 8.53125-8.535157 4.714844 0 8.535156 3.820313 8.535156 8.535157 0 27.714843-48.359375 42.667968-93.867188 42.667968zm0 0"/><path d="m418.132812 187.734375c-45.507812 0-93.867187-14.953125-93.867187-42.667969 0-4.710937 3.820313-8.53125 8.535156-8.53125 4.710938 0 8.53125 3.820313 8.53125 8.53125 0 10.4375 29.917969 25.601563 76.800781 25.601563 46.882813 0 76.800782-15.164063 76.800782-25.601563 0-4.710937 3.820312-8.53125 8.53125-8.53125 4.714844 0 8.535156 3.820313 8.535156 8.53125 0 27.714844-48.359375 42.667969-93.867188 42.667969zm0 0"/><path d="m418.132812 238.933594c-45.507812 0-93.867187-14.949219-93.867187-42.667969v-153.597656c0-4.714844 3.820313-8.535157 8.535156-8.535157 4.710938 0 8.53125 3.820313 8.53125 8.535157v153.597656c0 10.4375 29.917969 25.601563 76.800781 25.601563 46.882813 0 76.800782-15.164063 76.800782-25.601563v-153.597656c0-4.714844 3.820312-8.535157 8.53125-8.535157 4.714844 0 8.535156 3.820313 8.535156 8.535157v153.597656c0 27.71875-48.359375 42.667969-93.867188 42.667969zm0 0"/><path d="m273.066406 93.867188h-34.132812c-4.714844 0-8.535156-3.820313-8.535156-8.535157 0-4.710937 3.820312-8.53125 8.535156-8.53125h34.132812c4.714844 0 8.535156 3.820313 8.535156 8.53125 0 4.714844-3.820312 8.535157-8.535156 8.535157zm0 0"/><path d="m256 119.464844c-4.710938 0-8.535156-3.820313-8.535156-8.53125v-25.601563c0-4.710937 3.824218-8.53125 8.535156-8.53125s8.535156 3.820313 8.535156 8.53125v25.601563c0 4.710937-3.824218 8.53125-8.535156 8.53125zm0 0"/><path d="m332.800781 93.867188h-25.601562c-4.710938 0-8.53125-3.820313-8.53125-8.535157 0-4.710937 3.820312-8.53125 8.53125-8.53125h25.601562c4.710938 0 8.53125 3.820313 8.53125 8.53125 0 4.714844-3.820312 8.535157-8.53125 8.535157zm0 0"/><path d="m204.800781 93.867188h-25.601562c-4.710938 0-8.53125-3.820313-8.53125-8.535157 0-4.710937 3.820312-8.53125 8.53125-8.53125h25.601562c4.710938 0 8.53125 3.820313 8.53125 8.53125 0 4.714844-3.820312 8.535157-8.53125 8.535157zm0 0"/><path d="m256 179.199219c-4.710938 0-8.535156-3.820313-8.535156-8.53125v-25.601563c0-4.710937 3.824218-8.53125 8.535156-8.53125s8.535156 3.820313 8.535156 8.53125v25.601563c0 4.710937-3.824218 8.53125-8.535156 8.53125zm0 0"/><path d="m281.601562 307.199219h-25.601562c-4.710938 0-8.535156-3.820313-8.535156-8.53125v-59.734375c0-4.714844 3.824218-8.535156 8.535156-8.535156s8.535156 3.820312 8.535156 8.535156v51.199218h17.066406c4.710938 0 8.53125 3.820313 8.53125 8.535157 0 4.710937-3.820312 8.53125-8.53125 8.53125zm0 0"/><path d="m358.398438 512h-196.265626c-14.136718 0-25.597656-11.460938-25.597656-25.601562v-136.53125c0-14.140626 11.460938-25.601563 25.597656-25.601563h196.265626c14.140624 0 25.601562 11.460937 25.601562 25.601563v136.53125c0 14.140624-11.460938 25.601562-25.601562 25.601562zm-196.265626-170.667969c-4.710937 0-8.53125 3.820313-8.53125 8.535157v136.53125c0 4.714843 3.820313 8.535156 8.53125 8.535156h196.265626c4.714843 0 8.535156-3.820313 8.535156-8.535156v-136.53125c0-4.714844-3.820313-8.535157-8.535156-8.535157zm0 0"/><path d="m358.398438 512h-196.265626c-14.136718 0-25.597656-11.460938-25.597656-25.601562v-136.53125c0-14.140626 11.460938-25.601563 25.597656-25.601563h196.265626c14.140624 0 25.601562 11.460937 25.601562 25.601563v136.53125c0 14.140624-11.460938 25.601562-25.601562 25.601562zm-196.265626-170.667969c-4.710937 0-8.53125 3.820313-8.53125 8.535157v136.53125c0 4.714843 3.820313 8.535156 8.53125 8.535156h196.265626c4.714843 0 8.535156-3.820313 8.535156-8.535156v-136.53125c0-4.714844-3.820313-8.535157-8.535156-8.535157zm0 0"/><path d="m375.464844 375.464844h-230.398438c-4.710937 0-8.53125-3.820313-8.53125-8.53125 0-4.714844 3.820313-8.535156 8.53125-8.535156h230.398438c4.714844 0 8.535156 3.820312 8.535156 8.535156 0 4.710937-3.820312 8.53125-8.535156 8.53125zm0 0"/><path d="m341.332031 477.867188h-162.132812c-4.710938 0-8.53125-3.820313-8.53125-8.535157 0-4.710937 3.820312-8.53125 8.53125-8.53125h162.132812c4.714844 0 8.535157 3.820313 8.535157 8.53125 0 4.714844-3.820313 8.535157-8.535157 8.535157zm0 0"/><path d="m273.066406 443.734375h-93.867187c-4.710938 0-8.53125-3.820313-8.53125-8.535156 0-4.710938 3.820312-8.53125 8.53125-8.53125h93.867187c4.714844 0 8.535156 3.820312 8.535156 8.53125 0 4.714843-3.820312 8.535156-8.535156 8.535156zm0 0"/><path d="m273.066406 409.601562h-93.867187c-4.710938 0-8.53125-3.820312-8.53125-8.535156 0-4.710937 3.820312-8.53125 8.53125-8.53125h93.867187c4.714844 0 8.535156 3.820313 8.535156 8.53125 0 4.714844-3.820312 8.535156-8.535156 8.535156zm0 0"/><path d="m332.800781 443.734375h-17.066406c-9.425781 0-17.066406-7.640625-17.066406-17.066406v-17.066407c0-9.425781 7.640625-17.066406 17.066406-17.066406h17.066406c9.425781 0 17.066407 7.640625 17.066407 17.066406v17.066407c0 9.425781-7.640626 17.066406-17.066407 17.066406zm-17.066406-34.132813v17.066407h17.066406v-17.066407zm0 0"/><path d="m256 247.464844c-14.136719 0-25.601562-11.460938-25.601562-25.597656 0-14.140626 11.464843-25.601563 25.601562-25.601563s25.601562 11.460937 25.601562 25.601563c0 14.136718-11.464843 25.597656-25.601562 25.597656zm0-34.132813c-4.710938 0-8.535156 3.820313-8.535156 8.535157 0 4.710937 3.824218 8.53125 8.535156 8.53125s8.535156-3.820313 8.535156-8.53125c0-4.714844-3.824218-8.535157-8.535156-8.535157zm0 0"/><path d="m273.066406 281.601562h-17.066406c-4.710938 0-8.535156-3.820312-8.535156-8.535156 0-4.710937 3.824218-8.53125 8.535156-8.53125h17.066406c4.714844 0 8.535156 3.820313 8.535156 8.53125 0 4.714844-3.820312 8.535156-8.535156 8.535156zm0 0"/></svg>