<svg id="Layer_1" enable-background="new 0 0 512 512" height="512" viewBox="0 0 512 512" width="512" xmlns="http://www.w3.org/2000/svg"><g><path d="m119.193 150.182h273.613c.759 0 1.51.039 2.254.1v-32.588c-.744.061-1.495.1-2.254.1h-273.613c-.759 0-1.51-.039-2.254-.1v32.588c.744-.06 1.495-.1 2.254-.1z" fill="#6e60b8"/><g><path d="m162.312 117.795h-43.119c-.76 0-1.51-.039-2.254-.1v32.588c.744-.061 1.495-.101 2.254-.101h43.119z" fill="#6353b2"/></g><path d="m392.807 264.887h-273.614c-.759 0-1.51-.039-2.254-.1v32.588c.744-.061 1.495-.101 2.254-.101h273.613c.759 0 1.51.039 2.254.1v-32.588c-.743.062-1.494.101-2.253.101z" fill="#6e60b8"/><g><path d="m162.312 264.887h-43.119c-.76 0-1.51-.039-2.254-.1v32.588c.744-.061 1.495-.101 2.254-.101h43.119z" fill="#6353b2"/></g><path d="m243.963 413.009h24.088v35.105h-24.088z" fill="#dfebfa"/><path d="m243.963 413.009h13.706v35.105h-13.706z" fill="#bed8fb"/><path d="m131.228 479.882c-6.485 0-12.066 4.984-12.371 11.462-.326 6.916 5.186 12.627 12.03 12.627h82.098v-24.088h-81.757z" fill="#dfebfa"/><path d="m380.786 479.882h-82.54v24.088h82.88c6.845 0 12.356-5.71 12.03-12.627-.304-6.477-5.885-11.461-12.37-11.461z" fill="#dfebfa"/><path d="m120.799 485.455c-1.13 1.708-1.84 3.71-1.942 5.889-.326 6.917 5.186 12.627 12.03 12.627h82.098v-13.042h-82.098c-4.226 0-7.938-2.181-10.088-5.474z" fill="#bed8fb"/><path d="m381.126 490.929h-82.88v13.042h82.88c6.845 0 12.356-5.71 12.03-12.627-.103-2.179-.812-4.181-1.942-5.889-2.149 3.293-5.862 5.474-10.088 5.474z" fill="#bed8fb"/><path d="m293.344 471.853h-14.477c-1.539 0-2.787-1.248-2.787-2.787v-15.268c0-4.435-3.595-8.029-8.029-8.029h-24.088c-4.435 0-8.029 3.595-8.029 8.029v15.268c0 1.539-1.248 2.787-2.787 2.787h-14.477c-4.435 0-8.029 3.595-8.029 8.029v24.088c0 4.435 3.595 8.029 8.029 8.029h74.674c4.435 0 8.029-3.595 8.029-8.029v-24.088c0-4.434-3.595-8.029-8.029-8.029z" fill="#9dc6fb"/><path d="m233.311 503.971v-24.088c0-4.435 3.595-8.029 8.029-8.029h14.477c1.539 0 2.787-1.248 2.787-2.787v-15.268c0-4.435 3.595-8.029 8.03-8.029h-22.67c-4.435 0-8.03 3.595-8.03 8.029v15.268c0 1.539-1.248 2.787-2.787 2.787h-14.477c-4.435 0-8.029 3.595-8.029 8.029v24.088c0 4.435 3.595 8.029 8.029 8.029h22.67c-4.434 0-8.029-3.595-8.029-8.029z" fill="#80b4fb"/><path d="m392.807 0h-273.614c-15.188 0-27.615 12.427-27.615 27.615v65.656c0 15.188 12.427 27.615 27.615 27.615h273.614c15.188 0 27.615-12.427 27.615-27.615v-65.656c0-15.188-12.427-27.615-27.615-27.615z" fill="#8479c2"/><path d="m129.695 93.271v-65.656c0-15.188 12.427-27.615 27.615-27.615h-38.116c-15.188 0-27.615 12.427-27.615 27.615v65.656c0 15.188 12.427 27.615 27.615 27.615h38.116c-15.188 0-27.615-12.427-27.615-27.615z" fill="#6e60b8"/><path d="m388.862 25.361h-265.724c-3.424 0-6.199 2.775-6.199 6.199v57.766c0 3.424 2.776 6.199 6.199 6.199h265.723c3.424 0 6.199-2.775 6.199-6.199v-57.766c.001-3.424-2.774-6.199-6.198-6.199z" fill="#6e60b8"/><path d="m155.056 89.326v-57.766c0-3.424 2.775-6.199 6.199-6.199h-38.116c-3.424 0-6.199 2.775-6.199 6.199v57.766c0 3.424 2.775 6.199 6.199 6.199h38.116c-3.424 0-6.199-2.775-6.199-6.199z" fill="#6353b2"/><circle cx="154.953" cy="60.443" fill="#ffe181" r="13.103"/><path d="m157.31 60.443c0-4.342 2.121-8.179 5.373-10.563-2.168-1.59-4.835-2.54-7.73-2.54-7.236 0-13.103 5.866-13.103 13.103s5.867 13.103 13.103 13.103c2.895 0 5.561-.95 7.73-2.54-3.252-2.384-5.373-6.221-5.373-10.563z" fill="#fec458"/><g><path d="m316.161 68.169h-27.615c-4.267 0-7.726-3.459-7.726-7.726s3.459-7.726 7.726-7.726h27.615c4.267 0 7.726 3.459 7.726 7.726s-3.459 7.726-7.726 7.726z" fill="#6353b2"/></g><g><path d="m369.137 68.169h-26.488c-4.267 0-7.726-3.459-7.726-7.726s3.459-7.726 7.726-7.726h26.488c4.267 0 7.726 3.459 7.726 7.726s-3.459 7.726-7.726 7.726z" fill="#6353b2"/></g><circle cx="201.858" cy="60.443" fill="#ffe181" r="13.103"/><path d="m204.214 60.443c0-4.342 2.121-8.179 5.373-10.563-2.168-1.59-4.835-2.54-7.73-2.54-7.236 0-13.103 5.866-13.103 13.103s5.867 13.103 13.103 13.103c2.895 0 5.561-.95 7.73-2.54-3.252-2.384-5.373-6.221-5.373-10.563z" fill="#fec458"/><circle cx="248.763" cy="60.443" fill="#ffe181" r="13.103"/><path d="m251.119 60.443c0-4.342 2.121-8.179 5.373-10.563-2.168-1.59-4.835-2.54-7.73-2.54-7.236 0-13.103 5.866-13.103 13.103s5.867 13.103 13.103 13.103c2.895 0 5.561-.95 7.73-2.54-3.252-2.384-5.373-6.221-5.373-10.563z" fill="#fec458"/><path d="m392.807 148.36h-273.614c-15.188 0-27.615 12.427-27.615 27.615v65.656c0 15.188 12.427 27.615 27.615 27.615h273.614c15.188 0 27.615-12.427 27.615-27.615v-65.656c0-15.189-12.427-27.615-27.615-27.615z" fill="#8479c2"/><path d="m129.695 241.631v-65.656c0-15.188 12.427-27.615 27.615-27.615h-38.116c-15.188 0-27.615 12.427-27.615 27.615v65.656c0 15.188 12.427 27.615 27.615 27.615h38.116c-15.188-.001-27.615-12.427-27.615-27.615z" fill="#6e60b8"/><path d="m388.862 173.72h-265.724c-3.424 0-6.199 2.775-6.199 6.199v57.766c0 3.424 2.776 6.199 6.199 6.199h265.723c3.424 0 6.199-2.775 6.199-6.199v-57.765c.001-3.424-2.774-6.2-6.198-6.2z" fill="#6e60b8"/><path d="m155.056 237.686v-57.766c0-3.424 2.775-6.199 6.199-6.199h-38.116c-3.424 0-6.199 2.775-6.199 6.199v57.766c0 3.424 2.775 6.199 6.199 6.199h38.116c-3.424 0-6.199-2.776-6.199-6.199z" fill="#6353b2"/><circle cx="154.953" cy="208.803" fill="#ffe181" r="13.103"/><path d="m157.31 208.803c0-4.342 2.121-8.179 5.373-10.563-2.168-1.59-4.835-2.54-7.73-2.54-7.236 0-13.103 5.866-13.103 13.103s5.867 13.103 13.103 13.103c2.895 0 5.561-.95 7.73-2.54-3.252-2.384-5.373-6.222-5.373-10.563z" fill="#fec458"/><g><path d="m316.161 216.529h-27.615c-4.267 0-7.726-3.459-7.726-7.726s3.459-7.726 7.726-7.726h27.615c4.267 0 7.726 3.459 7.726 7.726s-3.459 7.726-7.726 7.726z" fill="#6353b2"/></g><g><path d="m369.137 216.529h-26.488c-4.267 0-7.726-3.459-7.726-7.726s3.459-7.726 7.726-7.726h26.488c4.267 0 7.726 3.459 7.726 7.726s-3.459 7.726-7.726 7.726z" fill="#6353b2"/></g><circle cx="201.858" cy="208.803" fill="#ffe181" r="13.103"/><path d="m204.214 208.803c0-4.342 2.121-8.179 5.373-10.563-2.168-1.59-4.835-2.54-7.73-2.54-7.236 0-13.103 5.866-13.103 13.103s5.867 13.103 13.103 13.103c2.895 0 5.561-.95 7.73-2.54-3.252-2.384-5.373-6.222-5.373-10.563z" fill="#fec458"/><circle cx="248.763" cy="208.803" fill="#ffe181" r="13.103"/><path d="m251.119 208.803c0-4.342 2.121-8.179 5.373-10.563-2.168-1.59-4.835-2.54-7.73-2.54-7.236 0-13.103 5.866-13.103 13.103s5.867 13.103 13.103 13.103c2.895 0 5.561-.95 7.73-2.54-3.252-2.384-5.373-6.222-5.373-10.563z" fill="#fec458"/><path d="m392.807 294.184h-273.614c-15.188 0-27.615 12.427-27.615 27.615v65.656c0 15.188 12.427 27.615 27.615 27.615h273.614c15.188 0 27.615-12.427 27.615-27.615v-65.656c0-15.189-12.427-27.615-27.615-27.615z" fill="#8479c2"/><path d="m129.695 387.455v-65.656c0-15.188 12.427-27.615 27.615-27.615h-38.116c-15.188 0-27.615 12.427-27.615 27.615v65.656c0 15.188 12.427 27.615 27.615 27.615h38.116c-15.188 0-27.615-12.427-27.615-27.615z" fill="#6e60b8"/><path d="m388.862 319.544h-265.724c-3.424 0-6.199 2.775-6.199 6.199v57.766c0 3.424 2.776 6.199 6.199 6.199h265.723c3.424 0 6.199-2.775 6.199-6.199v-57.766c.001-3.423-2.774-6.199-6.198-6.199z" fill="#6e60b8"/><path d="m155.056 383.51v-57.766c0-3.424 2.775-6.199 6.199-6.199h-38.116c-3.424 0-6.199 2.775-6.199 6.199v57.766c0 3.423 2.775 6.199 6.199 6.199h38.116c-3.424 0-6.199-2.776-6.199-6.199z" fill="#6353b2"/><circle cx="154.953" cy="354.627" fill="#ffe181" r="13.103"/><path d="m157.31 354.627c0-4.342 2.121-8.179 5.373-10.563-2.168-1.59-4.835-2.54-7.73-2.54-7.236 0-13.103 5.866-13.103 13.103s5.867 13.103 13.103 13.103c2.895 0 5.561-.95 7.73-2.54-3.252-2.384-5.373-6.222-5.373-10.563z" fill="#fec458"/><g><path d="m316.161 362.353h-27.615c-4.267 0-7.726-3.459-7.726-7.726s3.459-7.726 7.726-7.726h27.615c4.267 0 7.726 3.459 7.726 7.726s-3.459 7.726-7.726 7.726z" fill="#6353b2"/></g><g><path d="m369.137 362.353h-26.488c-4.267 0-7.726-3.459-7.726-7.726s3.459-7.726 7.726-7.726h26.488c4.267 0 7.726 3.459 7.726 7.726s-3.459 7.726-7.726 7.726z" fill="#6353b2"/></g><circle cx="201.858" cy="354.627" fill="#ffe181" r="13.103"/><path d="m204.214 354.627c0-4.342 2.121-8.179 5.373-10.563-2.168-1.59-4.835-2.54-7.73-2.54-7.236 0-13.103 5.866-13.103 13.103s5.867 13.103 13.103 13.103c2.895 0 5.561-.95 7.73-2.54-3.252-2.384-5.373-6.222-5.373-10.563z" fill="#fec458"/><circle cx="248.763" cy="354.627" fill="#ffe181" r="13.103"/><path d="m251.119 354.627c0-4.342 2.121-8.179 5.373-10.563-2.168-1.59-4.835-2.54-7.73-2.54-7.236 0-13.103 5.866-13.103 13.103s5.867 13.103 13.103 13.103c2.895 0 5.561-.95 7.73-2.54-3.252-2.384-5.373-6.222-5.373-10.563z" fill="#fec458"/></g></svg>